<svg width="24" height="24" viewBox="0 0 24 24" fill="none" xmlns="http://www.w3.org/2000/svg">
<path d="M2.75 12C2.75 10.117 2.75072 8.75483 2.84742 7.68789C2.94319 6.63125 3.12833 5.93798 3.45337 5.375C3.91415 4.5769 4.5769 3.91415 5.375 3.45337C5.93798 3.12833 6.63125 2.94319 7.68789 2.84742C8.75483 2.75072 10.117 2.75 12 2.75C13.883 2.75 15.2452 2.75072 16.3121 2.84742C17.3687 2.94319 18.062 3.12833 18.625 3.45337C19.4231 3.91415 20.0858 4.5769 20.5466 5.375C20.8717 5.93798 21.0568 6.63125 21.1526 7.68789C21.2493 8.75483 21.25 10.117 21.25 12C21.25 13.883 21.2493 15.2452 21.1526 16.3121C21.0568 17.3687 20.8717 18.062 20.5466 18.625C20.0858 19.4231 19.4231 20.0858 18.625 20.5466C18.062 20.8717 17.3687 21.0568 16.3121 21.1526C15.2452 21.2493 13.883 21.25 12 21.25C10.117 21.25 8.75483 21.2493 7.68789 21.1526C6.63125 21.0568 5.93798 20.8717 5.375 20.5466C4.5769 20.0858 3.91415 19.4231 3.45337 18.625C3.12833 18.062 2.94319 17.3687 2.84742 16.3121C2.75072 15.2452 2.75 13.883 2.75 12Z" stroke="white" stroke-width="1.5"/>
<path opacity="0.9" fill-rule="evenodd" clip-rule="evenodd" d="M9.01285 14.5413C9.38647 14.2761 9.90719 14.3661 10.1759 14.7423C10.3042 14.9219 10.6495 15.1901 11.15 15.4165C11.6409 15.6386 12.114 15.7446 12.4009 15.7336C12.9185 15.7139 13.4448 15.4884 13.8469 14.9523C14.1484 14.5503 14.1791 14.0648 13.972 13.6542C13.7711 13.2557 13.2891 12.8297 12.3782 12.7106C12.2401 12.7046 12.105 12.6937 11.9731 12.678C11.9619 12.6769 11.9507 12.6755 11.9396 12.6739C10.5574 12.5006 9.52841 11.7975 9.03226 10.8133C8.53762 9.83212 8.63071 8.67029 9.3075 7.7679C9.83029 7.07085 10.5048 6.64389 11.2172 6.45012L11.2172 5.36632C11.2172 4.90608 11.5903 4.53651 12.0505 4.54086C12.5107 4.5452 12.8838 4.92182 12.8838 5.38206L12.8838 6.40086C13.7588 6.5784 14.5657 7.06716 15.0833 7.7918C15.352 8.16799 15.2669 8.68792 14.8933 8.9531C14.5197 9.21829 13.999 9.12831 13.7303 8.75213C13.3981 8.28712 12.7599 7.96915 12.0901 7.99472C11.5725 8.01448 11.0462 8.23993 10.6441 8.77603C10.3426 9.17806 10.312 9.66354 10.519 10.0742C10.7199 10.4727 11.2019 10.8987 12.1128 11.0178C12.251 11.0238 12.3861 11.0347 12.5181 11.0504C12.5292 11.0515 12.5403 11.0529 12.5513 11.0544C13.9336 11.2277 14.9626 11.9309 15.4588 12.9151C15.9534 13.8963 15.8603 15.0581 15.1835 15.9605C14.6607 16.6575 13.9862 17.0845 13.2738 17.2782V18.2336C13.2738 18.6939 12.9007 19.0634 12.4405 19.0591C11.9803 19.0547 11.6072 18.6781 11.6072 18.2179V17.3127C11.2175 17.2291 10.8265 17.093 10.4751 16.934C9.86466 16.6579 9.20412 16.2364 8.82286 15.7026C8.55416 15.3264 8.63922 14.8065 9.01285 14.5413Z" fill="white"/>
</svg>
