<svg width="24" height="24" viewBox="0 0 24 24" fill="none" xmlns="http://www.w3.org/2000/svg">
<path d="M6.5 4.25C6.91421 4.25 7.25 3.91421 7.25 3.5C7.25 3.08579 6.91421 2.75 6.5 2.75V4.25ZM17.5 2.75C17.0858 2.75 16.75 3.08579 16.75 3.5C16.75 3.91421 17.0858 4.25 17.5 4.25V2.75ZM9.25 2C9.25 1.58579 8.91421 1.25 8.5 1.25C8.08579 1.25 7.75 1.58579 7.75 2H9.25ZM7.75 4C7.75 4.41421 8.08579 4.75 8.5 4.75C8.91421 4.75 9.25 4.41421 9.25 4H7.75ZM16.25 2C16.25 1.58579 15.9142 1.25 15.5 1.25C15.0858 1.25 14.75 1.58579 14.75 2H16.25ZM14.75 4C14.75 4.41421 15.0858 4.75 15.5 4.75C15.9142 4.75 16.25 4.41421 16.25 4H14.75ZM10.5 2.75C10.0858 2.75 9.75 3.08579 9.75 3.5C9.75 3.91421 10.0858 4.25 10.5 4.25V2.75ZM13.5 4.25C13.9142 4.25 14.25 3.91421 14.25 3.5C14.25 3.08579 13.9142 2.75 13.5 2.75V4.25ZM19.75 5.5V18.5H21.25V5.5H19.75ZM18.5 19.75H5.5V21.25H18.5V19.75ZM4.25 18.5V5.5H2.75V18.5H4.25ZM5.50008 4.25H6.5V2.75H5.50008V4.25ZM17.5 4.25H18.5V2.75H17.5V4.25ZM7.75 2V4H9.25V2H7.75ZM14.75 2V4H16.25V2H14.75ZM10.5 4.25H13.5V2.75H10.5V4.25ZM4 8.25H20V6.75H4V8.25ZM5.5 19.75C4.80964 19.75 4.25 19.1904 4.25 18.5H2.75C2.75 20.0188 3.98122 21.25 5.5 21.25V19.75ZM19.75 18.5C19.75 19.1904 19.1904 19.75 18.5 19.75V21.25C20.0188 21.25 21.25 20.0188 21.25 18.5H19.75ZM21.25 5.5C21.25 3.98122 20.0188 2.75 18.5 2.75V4.25C19.1904 4.25 19.75 4.80964 19.75 5.5H21.25ZM4.25 5.5C4.25 4.80968 4.80969 4.25 5.50008 4.25V2.75C3.98134 2.75 2.75 3.98118 2.75 5.5H4.25Z" fill="white"/>
</svg>
