<svg width="18" height="20" viewBox="0 0 18 20" fill="none" xmlns="http://www.w3.org/2000/svg">
<path d="M0.75 6C0.75 4.56458 0.751593 3.56347 0.853147 2.80812C0.951801 2.07434 1.13225 1.68577 1.40901 1.40901C1.68577 1.13225 2.07434 0.951801 2.80812 0.853147C3.56347 0.751593 4.56458 0.75 6 0.75H12C13.4354 0.75 14.4365 0.751593 15.1919 0.853147C15.9257 0.951801 16.3142 1.13225 16.591 1.40901C16.8678 1.68577 17.0482 2.07434 17.1469 2.80812C17.2484 3.56347 17.25 4.56458 17.25 6V14C17.25 15.4354 17.2484 16.4365 17.1469 17.1919C17.0482 17.9257 16.8678 18.3142 16.591 18.591C16.3142 18.8678 15.9257 19.0482 15.1919 19.1469C14.4365 19.2484 13.4354 19.25 12 19.25H6C4.56458 19.25 3.56347 19.2484 2.80812 19.1469C2.07434 19.0482 1.68577 18.8678 1.40901 18.591C1.13225 18.3142 0.951801 17.9257 0.853147 17.1919C0.751593 16.4365 0.75 15.4354 0.75 14V6Z" stroke="white" stroke-width="1.5" stroke-linecap="round"/>
</svg>
