<svg width="24" height="24" viewBox="0 0 24 24" fill="none" xmlns="http://www.w3.org/2000/svg">
<path d="M2.75 7C2.75 5.80029 2.75159 4.97595 2.83484 4.35676C2.91519 3.75914 3.05902 3.4661 3.26256 3.26256C3.4661 3.05902 3.75914 2.91519 4.35676 2.83484C4.97595 2.75159 5.80029 2.75 7 2.75H8.66667C9.08071 2.75 9.31579 2.75159 9.48112 2.77382C9.50979 2.77768 9.53173 2.78163 9.54817 2.78517C9.5517 2.8016 9.55566 2.82354 9.55951 2.85221C9.58174 3.01755 9.58333 3.25263 9.58333 3.66667V20.3333C9.58333 20.7474 9.58174 20.9825 9.55951 21.1478C9.55566 21.1765 9.5517 21.1984 9.54817 21.2148C9.53173 21.2184 9.50979 21.2223 9.48112 21.2262C9.31579 21.2484 9.08071 21.25 8.66667 21.25H7C5.80029 21.25 4.97595 21.2484 4.35676 21.1652C3.75914 21.0848 3.4661 20.941 3.26256 20.7374C3.05902 20.5339 2.91519 20.2409 2.83484 19.6432C2.75159 19.024 2.75 18.1997 2.75 17V7ZM9.59059 2.7973C9.59049 2.79734 9.58916 2.79684 9.58689 2.79567C9.58955 2.79667 9.59069 2.79726 9.59059 2.7973ZM9.53766 2.74644C9.53649 2.74418 9.53599 2.74284 9.53603 2.74275C9.53607 2.74265 9.53666 2.74378 9.53766 2.74644ZM9.53603 21.2573C9.53599 21.2572 9.53649 21.2558 9.53766 21.2536C9.53666 21.2562 9.53607 21.2574 9.53603 21.2573ZM9.58689 21.2043C9.58916 21.2032 9.59049 21.2027 9.59059 21.2027C9.59068 21.2027 9.58955 21.2033 9.58689 21.2043ZM14.4167 3.66667C14.4167 3.25263 14.4183 3.01755 14.4405 2.85221C14.4443 2.82354 14.4483 2.8016 14.4518 2.78517C14.4683 2.78163 14.4902 2.77768 14.5189 2.77382C14.6842 2.75159 14.9193 2.75 15.3333 2.75H17C18.1997 2.75 19.024 2.75159 19.6432 2.83484C20.2409 2.91519 20.5339 3.05902 20.7374 3.26256C20.941 3.4661 21.0848 3.75914 21.1652 4.35676C21.2484 4.97595 21.25 5.80029 21.25 7C21.25 7.41404 21.2484 7.64912 21.2262 7.81446C21.2223 7.84313 21.2184 7.86507 21.2148 7.8815C21.1984 7.88504 21.1765 7.88899 21.1478 7.89284C20.9825 7.91507 20.7474 7.91667 20.3333 7.91667H15.3333C14.9193 7.91667 14.6842 7.91507 14.5189 7.89284C14.4902 7.88899 14.4683 7.88504 14.4518 7.8815C14.4483 7.86507 14.4443 7.84313 14.4405 7.81446C14.4183 7.64912 14.4167 7.41404 14.4167 7V3.66667ZM14.464 2.74275C14.464 2.74285 14.4635 2.74417 14.4623 2.74644C14.4633 2.74378 14.4639 2.74265 14.464 2.74275ZM14.4131 2.79567C14.4108 2.79684 14.4095 2.79734 14.4094 2.7973C14.4093 2.79726 14.4104 2.79667 14.4131 2.79567ZM21.2027 7.92392C21.2027 7.92382 21.2032 7.92249 21.2043 7.92022C21.2033 7.92289 21.2027 7.92402 21.2027 7.92392ZM21.2536 7.871C21.2558 7.86983 21.2572 7.86933 21.2573 7.86937C21.2574 7.86941 21.2562 7.86999 21.2536 7.871ZM14.4094 7.86937C14.4095 7.86932 14.4108 7.86983 14.4131 7.871C14.4104 7.86999 14.4093 7.86941 14.4094 7.86937ZM14.4623 7.92022C14.4635 7.92249 14.464 7.92382 14.464 7.92392C14.4639 7.92402 14.4633 7.92288 14.4623 7.92022ZM14.4167 12.8333C14.4167 12.4193 14.4183 12.1842 14.4405 12.0189C14.4443 11.9902 14.4483 11.9683 14.4518 11.9518C14.4683 11.9483 14.4902 11.9443 14.5189 11.9405C14.6842 11.9183 14.9193 11.9167 15.3333 11.9167H20.3333C20.7474 11.9167 20.9825 11.9183 21.1478 11.9405C21.1765 11.9443 21.1984 11.9483 21.2148 11.9518C21.2184 11.9683 21.2223 11.9902 21.2262 12.0189C21.2484 12.1842 21.25 12.4193 21.25 12.8333V17C21.25 18.1997 21.2484 19.024 21.1652 19.6432C21.0848 20.2409 20.941 20.5339 20.7374 20.7374C20.5339 20.941 20.2409 21.0848 19.6432 21.1652C19.024 21.2484 18.1997 21.25 17 21.25H15.3333C14.9193 21.25 14.6842 21.2484 14.5189 21.2262C14.4902 21.2223 14.4683 21.2184 14.4518 21.2148C14.4483 21.1984 14.4443 21.1765 14.4405 21.1478C14.4183 20.9825 14.4167 20.7474 14.4167 20.3333V12.8333ZM14.464 11.9094C14.464 11.9095 14.4635 11.9108 14.4623 11.9131C14.4633 11.9104 14.4639 11.9093 14.464 11.9094ZM14.4131 11.9623C14.4108 11.9635 14.4095 11.964 14.4094 11.964C14.4093 11.9639 14.4104 11.9633 14.4131 11.9623ZM21.2573 11.964C21.2571 11.964 21.2558 11.9635 21.2536 11.9623C21.2562 11.9633 21.2574 11.9639 21.2573 11.964ZM21.2043 11.9131C21.2032 11.9108 21.2027 11.9095 21.2027 11.9094C21.2027 11.9093 21.2033 11.9104 21.2043 11.9131ZM14.4094 21.2027C14.4095 21.2027 14.4108 21.2032 14.4131 21.2043C14.4105 21.2033 14.4093 21.2027 14.4094 21.2027ZM14.4623 21.2536C14.4635 21.2558 14.464 21.2571 14.464 21.2573C14.4639 21.2574 14.4633 21.2562 14.4623 21.2536Z" stroke="white" stroke-width="1.5"/>
</svg>
