<svg width="32" height="33" viewBox="0 0 32 33" fill="none" xmlns="http://www.w3.org/2000/svg">
<mask id="mask0_593_1131" style="mask-type:alpha" maskUnits="userSpaceOnUse" x="0" y="0" width="32" height="33">
<circle cx="16" cy="16.5" r="16" fill="#C4C4C4"/>
</mask>
<g mask="url(#mask0_593_1131)">
<circle cx="16" cy="16.5" r="16" fill="#333333" fill-opacity="0.05"/>
<path fill-rule="evenodd" clip-rule="evenodd" d="M16.0001 23.0088C12.6256 23.0088 9.74304 25.048 8.55472 27.9288C8.42836 28.2352 8.0776 28.3811 7.77126 28.2547C7.46493 28.1283 7.31903 27.7776 7.4454 27.4712C8.81668 24.1469 12.1334 21.8088 16.0001 21.8088C19.8667 21.8088 23.1834 24.1469 24.5547 27.4712C24.6811 27.7776 24.5352 28.1283 24.2289 28.2547C23.9225 28.3811 23.5718 28.2352 23.4454 27.9288C22.2571 25.048 19.3745 23.0088 16.0001 23.0088Z" fill="#333333"/>
<path fill-rule="evenodd" clip-rule="evenodd" d="M16.3999 5.09999C12.3593 5.09999 11.6425 7.4077 11.6426 7.87763V10.5908C11.7489 10.4749 11.8608 10.3562 11.9695 10.2492C12.6274 9.60141 13.6025 8.90237 15.0422 9.05156C15.895 9.13992 16.8602 9.01078 17.6502 8.77853C18.0436 8.66287 18.3743 8.52717 18.6139 8.39352C18.837 8.26901 18.9155 8.18249 18.932 8.16424C18.9354 8.16054 18.9362 8.15965 18.9351 8.16182C19.0791 7.86337 19.4378 7.73817 19.7362 7.88217C20.0347 8.02618 20.1599 8.38485 20.0159 8.6833C19.852 9.02304 19.5069 9.26942 19.1986 9.44143C18.8614 9.62956 18.443 9.79622 17.9887 9.92981C17.0831 10.1961 15.9585 10.3529 14.9186 10.2452C13.9924 10.1492 13.3536 10.5704 12.8114 11.1042C12.6304 11.2825 12.4946 11.4355 12.3571 11.5904C12.2637 11.6957 12.1695 11.8019 12.0597 11.9174C11.9438 12.0396 11.8096 12.1709 11.6633 12.2736C11.5302 12.3671 11.3371 12.4727 11.0981 12.4872C10.8562 12.5234 10.6407 12.5661 10.476 12.6769C10.3555 12.7581 10.2 12.9151 10.2 13.3667C10.2 13.8027 10.3429 13.9854 10.4591 14.0763C10.6016 14.1878 10.8144 14.2444 11.0426 14.2444C11.2017 14.2444 11.3544 14.3077 11.4669 14.4202C11.5794 14.5327 11.6426 14.6854 11.6426 14.8445C11.6425 15.8079 11.6825 16.8346 12.1087 17.641C12.4971 18.3761 13.2622 19.0239 14.9842 19.1006C15.3152 19.1153 15.5716 19.3957 15.5569 19.7267C15.5422 20.0577 15.2618 20.3141 14.9308 20.2994C12.8613 20.2072 11.6689 19.3772 11.0477 18.2017C10.567 17.2922 10.4676 16.2384 10.4475 15.3717C10.2016 15.3093 9.9484 15.2004 9.71972 15.0215C9.26924 14.669 9 14.1128 9 13.3667C9 12.5516 9.32541 12.0049 9.80592 11.6814C10.0156 11.5403 10.2408 11.4528 10.4426 11.3963V7.87791C10.4426 7.87787 10.4426 7.87796 10.4426 7.87791C10.4424 6.65889 11.7862 3.89999 16.3999 3.89999C21.0135 3.89999 22.3576 6.65871 22.3574 7.87777C22.3574 7.87782 22.3574 7.87772 22.3574 7.87777V11.3963C22.5592 11.4528 22.7844 11.5403 22.9941 11.6814C23.4746 12.0049 23.8 12.5516 23.8 13.3667C23.8 14.1128 23.5308 14.669 23.0803 15.0215C22.8516 15.2004 22.5984 15.3093 22.3525 15.3717C22.3324 16.2384 22.233 17.2922 21.7523 18.2017C21.1311 19.3772 19.9387 20.2072 17.8692 20.2994C17.5382 20.3141 17.2578 20.0577 17.2431 19.7267C17.2284 19.3957 17.4848 19.1153 17.8158 19.1006C19.5378 19.0239 20.3029 18.3761 20.6913 17.641C21.1175 16.8346 21.1575 15.8079 21.1574 14.8445C21.1574 14.6854 21.2206 14.5327 21.3331 14.4202C21.4456 14.3077 21.5983 14.2444 21.7574 14.2444C21.9856 14.2444 22.1984 14.1878 22.3409 14.0763C22.4571 13.9854 22.6 13.8027 22.6 13.3667C22.6 12.9151 22.4445 12.7581 22.324 12.6769C22.1522 12.5613 21.9251 12.5198 21.6705 12.4826C21.3758 12.4394 21.1574 12.1867 21.1574 11.8889V7.87777C21.1575 7.40787 20.4405 5.09999 16.3999 5.09999Z" fill="#333333"/>
</g>
</svg>
