<svg width="14" height="14" viewBox="0 0 14 14" fill="none" xmlns="http://www.w3.org/2000/svg">
<circle cx="7" cy="7" r="6" stroke="#333333"/>
<path d="M3.37644 10.2172C3.03047 10.2172 2.75 9.93673 2.75 9.59076C2.75 9.06664 2.83772 8.02984 3.37118 7.10211C3.93252 6.1259 4.96172 5.32391 6.68598 5.32399L8.01145 5.32408L8.01139 4.62644C8.01139 4.39541 8.13855 4.18314 8.34224 4.07413C8.54593 3.96511 8.79309 3.97706 8.98532 4.10521L10.971 5.42903C11.1453 5.54521 11.25 5.74081 11.25 5.95026C11.25 6.15971 11.1453 6.35531 10.971 6.47149L8.98532 7.79531C8.79309 7.92346 8.54593 7.93541 8.34224 7.82639C8.13855 7.71738 8.01139 7.5051 8.01139 7.27408V6.57697L6.68599 6.57688C5.4317 6.57681 4.80609 7.1201 4.45731 7.72665C4.08065 8.38169 4.00289 9.16514 4.00289 9.59076C4.00289 9.93673 3.72242 10.2172 3.37644 10.2172Z" fill="#333333"/>
</svg>
