<svg width="24" height="24" viewBox="0 0 24 24" fill="none" xmlns="http://www.w3.org/2000/svg">
<path d="M21.25 12C21.25 17.1086 17.1086 21.25 12 21.25C6.89137 21.25 2.75 17.1086 2.75 12C2.75 6.89137 6.89137 2.75 12 2.75C17.1086 2.75 21.25 6.89137 21.25 12Z" stroke="white" stroke-width="1.5"/>
<path fill-rule="evenodd" clip-rule="evenodd" d="M9.41529 10.2623C9.16912 10.1716 9.01225 9.92937 9.03009 9.6676L9.03289 9.62641C9.08323 8.88757 9.38577 8.25371 9.94717 7.75332L9.94881 7.75186C10.517 7.25006 11.2198 7 12.0257 7C12.8505 7 13.5675 7.24377 14.1397 7.74411C14.7129 8.24537 15 8.88068 15 9.61758C15 10.1006 14.8735 10.5466 14.6095 10.942L14.608 10.9443C14.3497 11.3261 13.9359 11.6939 13.405 12.0529C12.9688 12.3499 12.724 12.5811 12.6136 12.7447C12.5179 12.8929 12.4517 13.1118 12.4517 13.4307V14.1805C12.4517 14.3734 12.3668 14.5566 12.2195 14.6813C11.9748 14.8885 11.6162 14.8885 11.3715 14.6813C11.2242 14.5566 11.1393 14.3734 11.1393 14.1805V13.4183C11.1393 12.9535 11.2378 12.5292 11.466 12.1702L11.4687 12.166C11.6935 11.821 12.0801 11.4745 12.5781 11.1239C13.0176 10.8146 13.2984 10.5474 13.4538 10.3257C13.6025 10.1096 13.6746 9.88072 13.6746 9.62994C13.6746 9.2 13.5181 8.87178 13.21 8.60865L13.206 8.60524C12.8943 8.33321 12.5122 8.19337 12.0257 8.19337C11.559 8.19337 11.1868 8.32961 10.8776 8.59919L10.8755 8.60102C10.5689 8.86527 10.3827 9.21825 10.3359 9.69526C10.3112 9.94675 10.1401 10.1598 9.8998 10.2381L9.80299 10.2697C9.6766 10.3109 9.54002 10.3083 9.41529 10.2623ZM11.8117 17C11.5668 17 11.3536 16.9077 11.1934 16.755C11.0292 16.5986 10.9448 16.4007 10.9448 16.187C10.9448 15.9752 11.0282 15.7757 11.1986 15.6203C11.3581 15.4706 11.5695 15.3802 11.8117 15.3802C12.0482 15.3802 12.2693 15.4614 12.4365 15.6251C12.6034 15.7798 12.6851 15.9774 12.6851 16.187C12.6851 16.3984 12.6024 16.5944 12.4416 16.7501C12.2738 16.9171 12.0506 17 11.8117 17Z" fill="white"/>
</svg>
