<svg width="14" height="12" viewBox="0 0 14 12" fill="none" xmlns="http://www.w3.org/2000/svg">
<path fill-rule="evenodd" clip-rule="evenodd" d="M10.386 2.80158V2.71608C10.386 2.31456 10.7079 1.98907 11.1111 1.98907C11.5115 1.98907 11.8361 2.31047 11.8361 2.71608V4.0887L12.9843 5.10792C13.4167 5.4917 13.3013 5.80281 12.7277 5.80281H11.8361V11.478C11.8361 11.7663 11.5971 12 11.3164 12H2.68879C2.40175 12 2.16905 11.7671 2.16905 11.478V5.80281H1.27284C0.698738 5.80281 0.582905 5.49252 1.0162 5.10792L6.6072 0.145155C6.82429 -0.047537 7.17435 -0.0492314 7.39334 0.145155L10.386 2.80158ZM8.45262 6.99452V10.4983H10.386V6.99452H8.45262Z" fill="#333333"/>
</svg>
