<svg width="32" height="32" viewBox="0 0 32 32" fill="none" xmlns="http://www.w3.org/2000/svg">
<mask id="mask0_593_1786" style="mask-type:alpha" maskUnits="userSpaceOnUse" x="0" y="0" width="32" height="32">
<rect width="32" height="32" rx="9" fill="#C4C4C4"/>
</mask>
<g mask="url(#mask0_593_1786)">
<rect width="32" height="32" fill="#0082CA"/>
<mask id="mask1_593_1786" style="mask-type:alpha" maskUnits="userSpaceOnUse" x="0" y="0" width="32" height="32">
<rect width="32" height="32" fill="#9BE7D8"/>
</mask>
<g mask="url(#mask1_593_1786)">
<path d="M15.7826 11.9472C16.5852 11.9472 17.238 11.2752 17.238 10.4495C17.238 9.62356 16.5852 8.95181 15.7826 8.95181C14.9802 8.95181 14.3271 9.62356 14.3271 10.4495C14.3271 11.2752 14.9802 11.9472 15.7826 11.9472Z" fill="white"/>
<path d="M17.0609 13.3031H14.5039V23.4753H17.0609V13.3031Z" fill="white"/>
<path d="M20.0595 16.2133V17.7503H20.0562V18.8866V21.4554V21.6684C20.0512 21.8834 20.0314 22.094 19.9975 22.3005C19.9313 22.7023 19.8129 23.0857 19.6485 23.4424C19.2735 24.2571 18.6622 24.9325 17.906 25.3785C17.6366 25.5371 17.3495 25.6675 17.0474 25.7634C16.6488 25.8899 16.2255 25.958 15.7864 25.958C15.3473 25.958 14.924 25.8899 14.5254 25.7631V25.8901V28.4653C14.9342 28.5438 15.3554 28.5867 15.7864 28.5867H15.7866C16.2176 28.5867 16.6383 28.5438 17.0474 28.4653C18.1717 28.2491 19.1987 27.7499 20.0562 27.0414C20.0569 27.0407 20.0576 27.0402 20.0585 27.0395C20.109 26.9973 20.1591 26.9546 20.2086 26.9115C20.8757 26.3273 21.4313 25.6136 21.8403 24.808C21.9637 24.5643 22.0741 24.3125 22.1696 24.0534C22.3797 23.4841 22.5205 22.8803 22.5801 22.2517C22.6015 22.0247 22.6132 21.7949 22.6132 21.562V21.5618V21.5613V21.1877V18.8868V17.7478V16.2133H20.0595Z" fill="white"/>
<path d="M11.5137 16.2134V14.6767H11.517V13.5404V10.9716V10.7585C11.522 10.5438 11.5418 10.3329 11.5756 10.1265C11.6416 9.72467 11.7602 9.34124 11.9246 8.98428C12.2996 8.1701 12.9109 7.49419 13.6671 7.04849C13.9366 6.88987 14.2237 6.75944 14.526 6.66358C14.9243 6.53708 15.3479 6.46892 15.7868 6.46892C16.2258 6.46892 16.6492 6.53708 17.0478 6.66383V6.53708V3.96189C16.6389 3.8832 16.218 3.84005 15.7868 3.84005C15.3558 3.84005 14.9348 3.8832 14.526 3.96165C13.4015 4.17788 12.3747 4.67703 11.517 5.38555C11.5163 5.38629 11.5156 5.38678 11.5146 5.38751C11.4641 5.42968 11.4141 5.47209 11.3645 5.51549C10.6977 6.09971 10.1419 6.81338 9.73281 7.61873C9.60941 7.86242 9.4991 8.11445 9.40357 8.37359C9.19344 8.94285 9.05264 9.54669 8.99308 10.1753C8.97163 10.4023 8.95996 10.632 8.95996 10.8649V10.8652V10.8657V11.2393V13.5401V14.6792V16.2134L11.5137 16.2134Z" fill="white"/>
</g>
</g>
</svg>
