<svg width="21" height="22" viewBox="0 0 21 22" fill="none" xmlns="http://www.w3.org/2000/svg">
<path d="M18.6072 4.81957L18.1613 5.59184C19.2566 7.0673 19.808 9.05762 19.0646 11.4706C18.4708 13.3976 17.881 14.3302 17.4115 15.0728C17.3209 15.216 17.2349 15.3521 17.1541 15.4869C16.7053 16.2359 16.3532 17.0317 16.2426 19.3442C16.2228 19.7568 16.1268 20.1475 15.8924 20.4561C15.6434 20.7839 15.2958 20.9441 14.9328 20.9873C14.5897 21.028 14.2293 20.9665 13.887 20.8657C13.5386 20.7633 13.1674 20.6075 12.7881 20.4226C12.0312 20.0537 11.1813 19.5381 10.3297 19.0069C10.2361 18.9486 10.1425 18.89 10.049 18.8314C9.81817 19.1252 9.50454 19.4169 9.11331 19.6258C8.39603 20.0087 7.46481 20.0852 6.44073 19.4939C5.41666 18.9027 5.01728 18.058 4.99028 17.2453C4.97567 16.8057 5.06976 16.3915 5.20691 16.0465C3.95445 15.3805 2.71007 14.6937 1.93311 14.0232C1.50556 13.6542 1.08394 13.1794 1.01126 12.6055C0.926463 11.9359 1.33031 11.4214 1.89313 11.0595C3.84047 9.80745 4.35354 9.10462 4.77784 8.34143C4.8542 8.2041 4.92903 8.06152 5.00775 7.91154L5.00776 7.91152C5.41606 7.13358 5.92888 6.15649 7.30082 4.67881C9.01872 2.82852 11.0178 2.31076 12.8431 2.52145L13.289 1.74912C13.6381 1.14457 14.2534 0.952509 14.8773 1.00957C15.4686 1.06364 16.1393 1.3373 16.839 1.74127C17.5387 2.14524 18.1111 2.58932 18.4536 3.07431C18.8149 3.58612 18.9563 4.21502 18.6072 4.81957Z" stroke="white" stroke-width="1.5" stroke-linecap="round" stroke-linejoin="round"/>
</svg>
