<svg width="23" height="22" viewBox="0 0 23 22" fill="none" xmlns="http://www.w3.org/2000/svg">
<path d="M10.8479 15.3107C9.7486 14.2114 8.76065 13.6369 7.88276 13.3445C7.31544 13.1555 6.80848 13.0898 6.37733 13.067C6.34092 13.059 6.3031 13.0548 6.26431 13.0548H6.24762C6.16961 13.0548 6.08731 13.0548 6.0009 13.0557C5.91473 13.0548 5.83264 13.0548 5.7548 13.0548H5.73789C5.6991 13.0548 5.66129 13.059 5.62488 13.067C5.19498 13.0898 4.68962 13.1552 4.12433 13.3429C3.24525 13.6348 2.25567 14.2094 1.1543 15.3107M21.9027 21.1013C20.8034 20.002 19.8155 19.4276 18.9376 19.1351C18.3703 18.9461 17.8633 18.8804 17.4321 18.8576C17.3957 18.8496 17.3579 18.8454 17.3191 18.8454L17.3024 18.8454C17.2244 18.8454 17.1421 18.8454 17.0557 18.8463C16.9695 18.8454 16.8875 18.8454 16.8096 18.8454H16.7927C16.7539 18.8454 16.7161 18.8496 16.6797 18.8576C16.2498 18.8804 15.7444 18.9458 15.1791 19.1335C14.3001 19.4254 13.3105 20 12.2091 21.1013M17.0318 7.31704C14.5291 7.31704 13.9485 8.58865 13.1554 13.3469C12.7247 15.9312 15.3084 16.7926 17.0318 16.7926C18.7552 16.7926 21.3389 15.9312 20.9082 13.3469C20.1151 8.58865 19.2669 7.31704 17.0318 7.31704ZM2.57937 4.36186V7.47699C2.57937 8.41458 2.71361 9.4092 3.42526 10.0196C4.05697 10.5615 5.00331 11.002 6.26431 11.002C7.23851 11.002 7.98735 10.7391 8.56296 10.3696C9.68709 9.64813 9.94925 8.1907 9.94925 6.85496V3.6321C9.94925 2.75473 9.42283 1 6.26431 1C3.82669 1 3.0613 2.04515 2.75824 2.92553C2.60027 3.38443 2.57937 3.87654 2.57937 4.36186Z" stroke="white" stroke-width="1.5" stroke-linecap="round"/>
</svg>
