<svg width="16" height="16" viewBox="0 0 16 16" fill="none" xmlns="http://www.w3.org/2000/svg">
<path fill-rule="evenodd" clip-rule="evenodd" d="M4 2C2.89543 2 2 2.89543 2 4V12C2 13.1046 2.89543 14 4 14H12C13.1046 14 14 13.1046 14 12V4C14 2.89543 13.1046 2 12 2H4ZM7.07706 4.92308C7.07706 4.41328 7.49034 4 8.00014 4C8.50994 4 8.92321 4.41328 8.92321 4.92308V7.0767H11.0769C11.5867 7.0767 12 7.48998 12 7.99978C12 8.50958 11.5867 8.92286 11.0769 8.92286H8.92321V11.0769C8.92321 11.5867 8.50994 12 8.00014 12C7.49034 12 7.07706 11.5867 7.07706 11.0769V8.92286H4.92308C4.41328 8.92286 4 8.50958 4 7.99978C4 7.48998 4.41328 7.0767 4.92308 7.0767L7.07706 7.0767V4.92308Z" fill="white"/>
</svg>
