<svg width="8" height="16" viewBox="0 0 8 16" fill="none" xmlns="http://www.w3.org/2000/svg">
<path d="M7.53783 8.09002L6.07783 6.96659C5.98418 6.8946 5.87103 6.70292 5.84054 6.56462L5.38832 4.51306C5.37708 4.46174 5.36003 4.41593 5.33911 4.37563C5.27336 4.21442 5.14665 4.10489 4.99978 4.10489L3.06934 4.21597C2.98474 4.2208 2.90607 4.26351 2.84162 4.33429C2.8287 4.3448 2.81527 4.35496 2.80364 4.36684L1.49193 5.71572C1.34041 5.87158 1.25555 6.18848 1.29895 6.437L1.81834 9.41651C1.86161 9.6652 2.04012 9.85293 2.23323 9.85293C2.24627 9.85293 2.25945 9.85207 2.2725 9.85035L2.46638 9.82451C2.57023 9.81056 2.66401 9.74029 2.72343 9.63145C2.78297 9.5226 2.80454 9.38206 2.78272 9.24601L2.41342 6.94593C2.39404 6.8252 2.44313 6.6466 2.5165 6.57134L2.75016 6.33143L2.87029 10.0246C2.87042 10.0286 2.87133 10.0322 2.87158 10.0362L2.33837 11.6131C2.2712 11.8117 2.10251 12.0867 1.96998 12.214L0.71988 13.414C0.518504 13.6073 0.442423 13.9938 0.546534 14.2941L0.717555 14.7869C0.785756 14.9834 0.922546 15.1055 1.07471 15.1055C1.16177 15.1055 1.24741 15.066 1.32233 14.9918L2.97285 13.3531C3.13729 13.1898 3.34008 12.8721 3.4345 12.6294L4.25848 10.5134C4.26506 10.4964 4.2692 10.4781 4.27462 10.4604L4.3321 10.4571L5.68076 15.4148C5.77596 15.7648 6.0299 16 6.31266 16C6.37983 16 6.44622 15.9864 6.51003 15.9594L6.59321 15.9241C6.75803 15.8543 6.89043 15.7033 6.96612 15.4987C7.04169 15.2941 7.05086 15.0619 6.99196 14.8452L5.57174 9.6249C5.56515 9.60079 5.55611 9.57875 5.54823 9.55584L5.50264 8.15495L7.06843 9.23946C7.12345 9.27769 7.18545 9.29784 7.24784 9.29784C7.39277 9.29784 7.52543 9.1933 7.59402 9.02504L7.68715 8.79632C7.78842 8.54815 7.72138 8.23125 7.53783 8.09002Z" fill="#333333"/>
<path d="M3.82156 3.73271C3.84184 3.73271 3.86238 3.73219 3.88292 3.73099C4.25635 3.70946 4.60123 3.49504 4.85388 3.12768C5.10654 2.76032 5.23674 2.2836 5.22059 1.78569C5.18727 0.757333 4.54271 -0.0428285 3.76163 0.00177804C3.3882 0.0233063 3.04331 0.237728 2.79066 0.605085C2.538 0.972616 2.4078 1.44916 2.42395 1.94707C2.4565 2.94839 3.07044 3.73271 3.82156 3.73271Z" fill="#333333"/>
</svg>
